<svg width="1481" height="955" viewBox="0 0 1481 955" fill="none" xmlns="http://www.w3.org/2000/svg">
<g clip-path="url(#clip0_2_2)">
<g opacity="0.07">
<path opacity="0.5" d="M1480 237.5L0 237.5" stroke="#030A21"/>
<path opacity="0.5" d="M1480 277.5L0 277.5" stroke="#030A21"/>
<path opacity="0.5" d="M1480 317.5L0 317.5" stroke="#030A21"/>
<path opacity="0.5" d="M1480 357.5H0" stroke="#030A21"/>
<path opacity="0.5" d="M1480 397.5H0" stroke="#030A21"/>
<path opacity="0.5" d="M1480 437.5H0" stroke="#030A21"/>
<path opacity="0.5" d="M1480 477.5H0" stroke="#030A21"/>
<path opacity="0.5" d="M1480 517.501L0 517.5" stroke="#030A21"/>
<path opacity="0.5" d="M1480 557.501H0" stroke="#030A21"/>
<path opacity="0.5" d="M1480 597.501H0" stroke="#030A21"/>
<path opacity="0.5" d="M1480 637.501H0" stroke="#030A21"/>
<path opacity="0.5" d="M1480 677.501H0" stroke="#030A21"/>
<path opacity="0.5" d="M1480 717.501H0" stroke="#030A21"/>
<path opacity="0.5" d="M1 -1L0 955" stroke="#030A21"/>
<path opacity="0.5" d="M40 -1V955" stroke="#030A21"/>
<path opacity="0.5" d="M80 -1V955" stroke="#030A21"/>
<path opacity="0.5" d="M120 -1V955" stroke="#030A21"/>
<path opacity="0.5" d="M160 -1V955" stroke="#030A21"/>
<path opacity="0.5" d="M200 -1V955" stroke="#030A21"/>
<path opacity="0.5" d="M240 -1V955" stroke="#030A21"/>
<path opacity="0.5" d="M280 -1V955" stroke="#030A21"/>
<path opacity="0.5" d="M320 -1V955" stroke="#030A21"/>
<path opacity="0.5" d="M360 -1V955" stroke="#030A21"/>
<path opacity="0.5" d="M400 -1V955" stroke="#030A21"/>
<path opacity="0.5" d="M440 -1V955" stroke="#030A21"/>
<path opacity="0.5" d="M480 -1V955" stroke="#030A21"/>
<path opacity="0.5" d="M520 -1V955" stroke="#030A21"/>
<path opacity="0.5" d="M561 -1V955" stroke="#030A21"/>
<path opacity="0.5" d="M601 -1V955" stroke="#030A21"/>
<path opacity="0.5" d="M641 -1V955" stroke="#030A21"/>
<path opacity="0.5" d="M681 -1V955" stroke="#030A21"/>
<path opacity="0.5" d="M721 -1V955" stroke="#030A21"/>
<path opacity="0.5" d="M761 -1V955" stroke="#030A21"/>
<path opacity="0.5" d="M801 -1V955" stroke="#030A21"/>
<path opacity="0.5" d="M841 -1V955" stroke="#030A21"/>
<path opacity="0.5" d="M881 -1V955" stroke="#030A21"/>
<path opacity="0.5" d="M921 -1V955" stroke="#030A21"/>
<path opacity="0.5" d="M961 -1V955" stroke="#030A21"/>
<path opacity="0.5" d="M1001 -1V955" stroke="#030A21"/>
<path opacity="0.5" d="M1041 -1V955" stroke="#030A21"/>
<path opacity="0.5" d="M1081 -1V955" stroke="#030A21"/>
<path opacity="0.5" d="M1121 -1V955" stroke="#030A21"/>
<path opacity="0.5" d="M1161 -1V955" stroke="#030A21"/>
<path opacity="0.5" d="M1201 -1V955" stroke="#030A21"/>
<path opacity="0.5" d="M1241 -1V955" stroke="#030A21"/>
<path opacity="0.5" d="M1281 -1V955" stroke="#030A21"/>
<path opacity="0.5" d="M1321 -1V955" stroke="#030A21"/>
<path opacity="0.5" d="M1361 -1V955" stroke="#030A21"/>
<path opacity="0.5" d="M1401 -1V955" stroke="#030A21"/>
<path opacity="0.5" d="M1441 -1V955" stroke="#030A21"/>
<path opacity="0.5" d="M1481 -1V955" stroke="#030A21"/>
</g>
</g>
<defs>
<clipPath id="clip0_2_2">
<rect width="1481" height="955" fill="white"/>
</clipPath>
</defs>
</svg>
