<svg width="1481" height="481" viewBox="0 0 1481 481" fill="none" xmlns="http://www.w3.org/2000/svg">
<g clip-path="url(#clip0_2_2)">
<g opacity="0.3">
<path opacity="0.5" d="M1480 0.500008L0 0.499939" stroke="#030A21"/>
<path opacity="0.5" d="M1480 40.5L0 40.4999" stroke="#030A21"/>
<path opacity="0.5" d="M1480 80.5L0 80.4999" stroke="#030A21"/>
<path opacity="0.5" d="M1480 120.5H0" stroke="#030A21"/>
<path opacity="0.5" d="M1480 160.5H0" stroke="#030A21"/>
<path opacity="0.5" d="M1480 200.5H0" stroke="#030A21"/>
<path opacity="0.5" d="M1480 240.5H0" stroke="#030A21"/>
<path opacity="0.5" d="M1480 280.501L0 280.5" stroke="#030A21"/>
<path opacity="0.5" d="M1480 320.501H0" stroke="#030A21"/>
<path opacity="0.5" d="M1480 360.501H0" stroke="#030A21"/>
<path opacity="0.5" d="M1480 400.501H0" stroke="#030A21"/>
<path opacity="0.5" d="M1480 440.501H0" stroke="#030A21"/>
<path opacity="0.5" d="M1480 480.501H0" stroke="#030A21"/>
<path opacity="0.5" d="M0.500006 0L0.5 480" stroke="#030A21"/>
<path opacity="0.5" d="M40.5 0V480" stroke="#030A21"/>
<path opacity="0.5" d="M80.5 0V480" stroke="#030A21"/>
<path opacity="0.5" d="M120.5 0V480" stroke="#030A21"/>
<path opacity="0.5" d="M160.5 0V480" stroke="#030A21"/>
<path opacity="0.5" d="M200.5 0V480" stroke="#030A21"/>
<path opacity="0.5" d="M240.5 0V480" stroke="#030A21"/>
<path opacity="0.5" d="M280.5 0V480" stroke="#030A21"/>
<path opacity="0.5" d="M320.5 0V480" stroke="#030A21"/>
<path opacity="0.5" d="M360.5 0V480" stroke="#030A21"/>
<path opacity="0.5" d="M400.5 0V480" stroke="#030A21"/>
<path opacity="0.5" d="M440.5 0V480" stroke="#030A21"/>
<path opacity="0.5" d="M480.5 0V480" stroke="#030A21"/>
<path opacity="0.5" d="M520.5 0V480" stroke="#030A21"/>
<path opacity="0.5" d="M560.501 0V480" stroke="#030A21"/>
<path opacity="0.5" d="M600.501 0V480" stroke="#030A21"/>
<path opacity="0.5" d="M640.501 0V480" stroke="#030A21"/>
<path opacity="0.5" d="M680.501 0V480" stroke="#030A21"/>
<path opacity="0.5" d="M720.501 0V480" stroke="#030A21"/>
<path opacity="0.5" d="M760.501 0V480" stroke="#030A21"/>
<path opacity="0.5" d="M800.501 0V480" stroke="#030A21"/>
<path opacity="0.5" d="M840.501 0V480" stroke="#030A21"/>
<path opacity="0.5" d="M880.501 0V480" stroke="#030A21"/>
<path opacity="0.5" d="M920.501 0V480" stroke="#030A21"/>
<path opacity="0.5" d="M960.501 0V480" stroke="#030A21"/>
<path opacity="0.5" d="M1000.5 0V480" stroke="#030A21"/>
<path opacity="0.5" d="M1040.5 0V480" stroke="#030A21"/>
<path opacity="0.5" d="M1080.5 0V480" stroke="#030A21"/>
<path opacity="0.5" d="M1120.5 0V480" stroke="#030A21"/>
<path opacity="0.5" d="M1160.5 0V480" stroke="#030A21"/>
<path opacity="0.5" d="M1200.5 0V480" stroke="#030A21"/>
<path opacity="0.5" d="M1240.5 0V480" stroke="#030A21"/>
<path opacity="0.5" d="M1280.5 0V480" stroke="#030A21"/>
<path opacity="0.5" d="M1320.5 0V480" stroke="#030A21"/>
<path opacity="0.5" d="M1360.5 0V480" stroke="#030A21"/>
<path opacity="0.5" d="M1400.5 0V480" stroke="#030A21"/>
<path opacity="0.5" d="M1440.5 0V480" stroke="#030A21"/>
<path opacity="0.5" d="M1480.5 0V480" stroke="#030A21"/>
</g>
</g>
<defs>
<clipPath id="clip0_2_2">
<rect width="1481" height="481" fill="white"/>
</clipPath>
</defs>
</svg>
