<svg width="1980" height="1080" viewBox="0 0 1980 1080" fill="none" xmlns="http://www.w3.org/2000/svg">
<g opacity="0.05" clip-path="url(#clip0_57_246)">
<circle cx="990" cy="540" r="49.5" stroke="#ABE9FF"/>
<circle cx="990" cy="540" r="99.5" stroke="#ABE9FF"/>
<circle cx="990" cy="540" r="149.5" stroke="#ABE9FF"/>
<circle cx="990" cy="540" r="199.5" stroke="#ABE9FF"/>
<circle cx="990" cy="540" r="249.5" stroke="#ABE9FF"/>
<circle cx="990" cy="540" r="299.5" stroke="#ABE9FF"/>
<circle cx="990" cy="540" r="349.5" stroke="#ABE9FF"/>
<circle cx="990" cy="540" r="399.5" stroke="#ABE9FF"/>
<circle cx="990" cy="540" r="449.5" stroke="#ABE9FF"/>
<circle cx="990" cy="540" r="499.5" stroke="#ABE9FF"/>
<circle cx="990" cy="540" r="549.5" stroke="#ABE9FF"/>
<circle cx="990" cy="540" r="599.5" stroke="#ABE9FF"/>
<circle cx="990" cy="540" r="649.5" stroke="#ABE9FF"/>
<circle cx="982" cy="540" r="699.5" stroke="#ABE9FF"/>
<circle cx="982" cy="540" r="749.5" stroke="#ABE9FF"/>
<circle cx="982" cy="540" r="799.5" stroke="#ABE9FF"/>
<circle cx="982" cy="540" r="849.5" stroke="#ABE9FF"/>
<circle cx="982" cy="540" r="899.5" stroke="#ABE9FF"/>
<circle cx="982" cy="540" r="949.5" stroke="#ABE9FF"/>
<circle cx="982" cy="540" r="999.5" stroke="#ABE9FF"/>
<circle cx="982" cy="540" r="1049.5" stroke="#ABE9FF"/>
<circle cx="982" cy="540" r="1099.5" stroke="#ABE9FF"/>
<circle cx="982" cy="540" r="1149.5" stroke="#ABE9FF"/>
</g>
<defs>
<clipPath id="clip0_57_246">
<rect width="1980" height="1080" fill="white"/>
</clipPath>
</defs>
</svg>
